<svg width="14" height="16" viewBox="0 0 14 16" fill="none" xmlns="http://www.w3.org/2000/svg">
<path fill-rule="evenodd" clip-rule="evenodd" d="M4.14645 1.14645C4.2402 1.05268 4.3674 1 4.5 1H9V4.5C9 4.63261 9.05267 4.75979 9.14645 4.85355C9.2402 4.94732 9.3674 5 9.5 5H13V11.5C13 11.6326 12.9473 11.7598 12.8535 11.8536C12.7598 11.9473 12.6326 12 12.5 12H4.5C4.3674 12 4.2402 11.9473 4.14645 11.8536C4.05267 11.7598 4 11.6326 4 11.5V1.5C4 1.36739 4.05267 1.24022 4.14645 1.14645ZM12.293 4L10 1.707V4H12.293ZM3.43933 0.439341C3.15805 0.720647 3 1.10218 3 1.5V3H1.5C1.10217 3 0.720642 3.15804 0.439331 3.43934C0.158051 3.72065 0 4.10218 0 4.5V14.5C0 14.8978 0.158051 15.2794 0.439331 15.5607C0.720642 15.842 1.10217 16 1.5 16H9.5C9.89783 16 10.2794 15.842 10.5607 15.5607C10.842 15.2794 11 14.8978 11 14.5V13H12.5C12.8978 13 13.2794 12.842 13.5607 12.5607C13.842 12.2794 14 11.8978 14 11.5V4.5C14.0001 4.4343 13.9873 4.36921 13.9622 4.30847C13.9372 4.24773 13.9004 4.19252 13.854 4.146L9.854 0.146001C9.8075 0.0996006 9.75226 0.0628212 9.69153 0.0377701C9.6308 0.012719 9.5657 -0.000115564 9.5 7.84004e-07H4.5C4.10217 7.84004e-07 3.72064 0.158036 3.43933 0.439341ZM10 13H4.5C4.10217 13 3.72064 12.842 3.43933 12.5607C3.15805 12.2794 3 11.8978 3 11.5V4H1.5C1.3674 4 1.2402 4.05268 1.14645 4.14645C1.05267 4.24022 1 4.36739 1 4.5V14.5C1 14.6326 1.05267 14.7598 1.14645 14.8536C1.2402 14.9473 1.3674 15 1.5 15H9.5C9.6326 15 9.7598 14.9473 9.85355 14.8536C9.94733 14.7598 10 14.6326 10 14.5V13Z" fill="black"/>
</svg>
